<svg xmlns="http://www.w3.org/2000/svg" viewBox="0 0 400 400" width="400" height="400" role="img" aria-label="Doctor portrait placeholder">
  <defs>
    <linearGradient id="bg1" x1="0" y1="0" x2="1" y2="1">
      <stop offset="0" stop-color="#d8f3e6"/>
      <stop offset="1" stop-color="#a3e0c4"/>
    </linearGradient>
  </defs>
  <rect width="400" height="400" fill="url(#bg1)"/>
  <circle cx="200" cy="170" r="78" fill="#f9e3c5"/>
  <path d="M200 92c-30 0-50 22-50 50 0 12 4 22 10 30-10 4-18 14-18 30v8h116v-8c0-16-8-26-18-30 6-8 10-18 10-30 0-28-20-50-50-50z" fill="#3c2412"/>
  <path d="M120 400c10-78 50-122 80-122s70 44 80 122z" fill="#ffffff"/>
  <path d="M120 400c10-78 50-122 80-122s70 44 80 122z" fill="#033c3f" opacity="0.05"/>
  <rect x="186" y="280" width="28" height="18" fill="#20B780" rx="3"/>
  <rect x="194" y="272" width="12" height="14" fill="#20B780" rx="2"/>
</svg>
