<svg xmlns="http://www.w3.org/2000/svg" viewBox="0 0 400 400" width="400" height="400" role="img" aria-label="Doctor portrait placeholder">
  <defs>
    <linearGradient id="bg3" x1="0" y1="0" x2="1" y2="1">
      <stop offset="0" stop-color="#f0ecda"/>
      <stop offset="1" stop-color="#c9d8c0"/>
    </linearGradient>
  </defs>
  <rect width="400" height="400" fill="url(#bg3)"/>
  <circle cx="200" cy="170" r="78" fill="#c08e6a"/>
  <path d="M148 150c0-32 24-58 52-58s52 26 52 58c0 8-1 16-4 22-4-2-50-26-90-18-10 2-10-4-10-4z" fill="#3a1f10"/>
  <path d="M120 400c10-78 50-122 80-122s70 44 80 122z" fill="#ffffff"/>
  <path d="M180 300c0 4 8 8 20 8s20-4 20-8" stroke="#20B780" stroke-width="3" fill="none"/>
  <circle cx="200" cy="158" r="2" fill="#1a1410"/>
  <circle cx="220" cy="158" r="2" fill="#1a1410"/>
</svg>
