<svg xmlns="http://www.w3.org/2000/svg" viewBox="0 0 400 400" width="400" height="400" role="img" aria-label="Doctor portrait placeholder">
  <defs>
    <linearGradient id="bg4" x1="0" y1="0" x2="1" y2="1">
      <stop offset="0" stop-color="#dceee5"/>
      <stop offset="1" stop-color="#a8d4c1"/>
    </linearGradient>
  </defs>
  <rect width="400" height="400" fill="url(#bg4)"/>
  <circle cx="200" cy="170" r="78" fill="#d8a47f"/>
  <path d="M150 142c4-30 24-50 50-50s50 22 50 50c0 8-2 18-6 26-26 0-58 4-86 12-8 2-10-6-10-12 0-12 0-22 2-26z" fill="#2a1408"/>
  <path d="M150 142c34 6 60 8 92 6-2-10-12-32-42-32s-46 14-50 26z" fill="#3a2010"/>
  <path d="M120 400c10-78 50-122 80-122s70 44 80 122z" fill="#ffffff"/>
  <rect x="186" y="296" width="28" height="4" fill="#20B780" rx="1"/>
  <rect x="194" y="298" width="12" height="40" fill="#20B780" rx="2"/>
</svg>
